HIERARCHY
ROOT Bip001_Pelvis
{
  OFFSET 34.4345 95.6767 -26.8758
  CHANNELS 6 Xposition Yposition Zposition Zrotation Xrotation Yrotation
  JOINT Bip001_Spine
  {
    OFFSET 1.4188e-005 10.2191 -0.0116013
    CHANNELS 3 Zrotation Xrotation Yrotation
    JOINT Bip001_L_Thigh
    {
      OFFSET 11.0458 -10.2192 0.0116197
      CHANNELS 3 Zrotation Xrotation Yrotation
      JOINT Bip001_L_Calf
      {
        OFFSET -0.707118 -44.0221 0.360014
        CHANNELS 3 Zrotation Xrotation Yrotation
        JOINT Bip001_L_Foot
        {
          OFFSET -0.651902 -40.5938 -3.56146
          CHANNELS 3 Zrotation Xrotation Yrotation
          JOINT Bip001_L_Toe0
          {
            OFFSET 0.0530839 -10.2181 13.1504
            CHANNELS 3 Zrotation Xrotation Yrotation
            End Site
            {
              OFFSET -1.02532e-005 0 7.55606
            }
          }
        }
      }
    }
    JOINT Bip001_R_Thigh
    {
      OFFSET -11.0458 -10.2191 0.0115893
      CHANNELS 3 Zrotation Xrotation Yrotation
      JOINT Bip001_R_Calf
      {
        OFFSET 0.706994 -44.0221 0.35984
        CHANNELS 3 Zrotation Xrotation Yrotation
        JOINT Bip001_R_Foot
        {
          OFFSET 0.651786 -40.5938 -3.5613
          CHANNELS 3 Zrotation Xrotation Yrotation
          JOINT Bip001_R_Toe0
          {
            OFFSET -0.0531479 -10.2181 13.1504
            CHANNELS 3 Zrotation Xrotation Yrotation
            End Site
            {
              OFFSET -1.02894e-005 0 7.55606
            }
          }
        }
      }
    }
    JOINT Bip001_Spine1
    {
      OFFSET 1.87041e-005 14.5736 1.08638
      CHANNELS 3 Zrotation Xrotation Yrotation
      JOINT Bip001_Spine2
      {
        OFFSET 2.24614e-005 14.5058 -1.69078
        CHANNELS 3 Zrotation Xrotation Yrotation
        JOINT Bip001_Neck
        {
          OFFSET 2.20278e-005 15.3945 -0.489414
          CHANNELS 3 Zrotation Xrotation Yrotation
          JOINT Bip001_L_Clavicle
          {
            OFFSET 6.06036 -0.000579998 0.00836775
            CHANNELS 3 Zrotation Xrotation Yrotation
            JOINT Bip001_L_UpperArm
            {
              OFFSET 11.5509 -0.0600302 0.00193952
              CHANNELS 3 Zrotation Xrotation Yrotation
              JOINT Bip001_L_Forearm
              {
                OFFSET 25.9523 0.0806089 -2.15551
                CHANNELS 3 Zrotation Xrotation Yrotation
                JOINT Bip001_L_Hand
                {
                  OFFSET 32.2475 0.153767 1.63968
                  CHANNELS 3 Zrotation Xrotation Yrotation
                  JOINT Bip001_L_Finger0
                  {
                    OFFSET 6.04639 -2.20976 5.90322
                    CHANNELS 3 Zrotation Xrotation Yrotation
                    End Site
                    {
                      OFFSET 4.22375 -1.43895 0.606485
                    }
                  }
                  JOINT Bip001_L_Finger1
                  {
                    OFFSET 11.0826 -0.704819 -0.198153
                    CHANNELS 3 Zrotation Xrotation Yrotation
                    End Site
                    {
                      OFFSET 6.20027 -0.397518 -0.0787166
                    }
                  }
                }
              }
            }
          }
          JOINT Bip001_R_Clavicle
          {
            OFFSET -6.06037 -0.000563197 0.00835105
            CHANNELS 3 Zrotation Xrotation Yrotation
            JOINT Bip001_R_UpperArm
            {
              OFFSET -11.5509 -0.0599978 0.00190698
              CHANNELS 3 Zrotation Xrotation Yrotation
              JOINT Bip001_R_Forearm
              {
                OFFSET -25.9523 0.0806822 -2.15589
                CHANNELS 3 Zrotation Xrotation Yrotation
                JOINT Bip001_R_Hand
                {
                  OFFSET -32.2475 0.153859 1.63989
                  CHANNELS 3 Zrotation Xrotation Yrotation
                  JOINT Bip001_R_Finger0
                  {
                    OFFSET -6.04641 -2.20976 5.90317
                    CHANNELS 3 Zrotation Xrotation Yrotation
                    End Site
                    {
                      OFFSET -4.22376 -1.43895 0.60647
                    }
                  }
                  JOINT Bip001_R_Finger1
                  {
                    OFFSET -11.0826 -0.704794 -0.198182
                    CHANNELS 3 Zrotation Xrotation Yrotation
                    End Site
                    {
                      OFFSET -6.20028 -0.397504 -0.0787333
                    }
                  }
                }
              }
            }
          }
          JOINT Bip001_Head
          {
            OFFSET 1.09673e-005 11.2744 2.05948
            CHANNELS 3 Zrotation Xrotation Yrotation
            End Site
            {
              OFFSET 2.89576e-005 20.8808 -2.77728e-005
            }
          }
        }
      }
    }
  }
}
MOTION
Frames:	16
Frame Time:	0.04
34.3318 96.0412 -27.7416 0.9945 0.6898 3.66195 -0.280509 1.86661 -0.43139 3.76999 -2.28132 6.61288 -0.801863 4.68632 -8.20512 2.477 -3.58618 -0.0424229 0.693423 -3.82586 -0.276696 -4.43666 -2.47164 -1.71455 0.0574972 9.36044 -0.154669 -5.67027 -8.82606 0.867453 2.40955 -8.09068 2.44613 -0.546933 3.73528 -0.85428 -0.547149 3.73527 -0.854317 2.53171 -9.12786 -3.33253 -26.2148 9.36303 1.62349 -58.199 44.7812 5.73325 15.3242 -2.9494 -23.6812 7.63138 0.57555 -3.3207 -3.18055e-015 -6.36111e-015 1.59028e-015 0 0 -1.59028e-015 23.948 18.7045 22.8987 69.9853 41.4451 -15.7804 -15.9221 -1.5098 8.90043 1.79832 6.72173 2.05253 9.93923e-017 1.59028e-015 8.07563e-016 4.96962e-017 0 4.96962e-016 -1.90616 -5.14295 -2.32549 
34.4498 96.0453 -27.8621 1.06127 0.752541 3.29364 -0.243056 1.93148 -0.476883 3.50154 -2.30852 6.62993 -0.727101 4.43477 -7.92725 2.79848 -3.25946 -0.0524286 0.75346 -4.01568 -0.312621 -4.66372 -2.82946 -1.54475 0.0852895 9.53078 -0.0915041 -5.59025 -8.8304 1.05206 2.4079 -8.07714 2.44605 -0.47041 3.86489 -0.946368 -0.47041 3.86489 -0.94637 2.09787 -9.01799 -2.9871 -25.7819 9.42601 1.34964 -57.62 45.9316 4.73141 15.9786 -0.921877 -22.8158 7.49767 0.68497 -3.88361 -3.18055e-015 3.18055e-015 -1.59028e-015 -3.18055e-015 9.54167e-015 -1.59028e-015 24.2219 18.7897 23.7523 72.2054 45.2131 -17.813 -16.2698 -4.13007 8.74374 10.9296 5.71913 5.28561 1.59028e-015 0 -3.97569e-016 -0 0 7.95139e-016 -1.62383 -5.46602 -2.14184 
34.7237 96.0578 -27.8901 1.4191 0.480035 2.82232 -0.278108 2.05229 -0.455843 2.84769 -1.73771 6.72603 -0.532964 3.69643 -7.69285 2.99056 -2.82051 -0.0692077 0.717943 -4.10605 -0.329556 -5.27855 -2.96791 -1.8515 0.164126 9.96769 0.0209083 -5.3526 -9.05249 1.66303 2.40263 -8.04158 2.43153 -0.540441 4.1067 -0.902524 -0.540441 4.1067 -0.902525 2.12207 -8.74562 -2.81324 -25.822 9.26229 1.04906 -57.1653 47.0794 4.00118 16.518 0.6665 -22.3898 7.90977 1.05635 -4.24747 -5.29669e-031 -9.54166e-015 -3.18055e-015 3.18055e-015 -3.18056e-015 -3.18055e-015 23.68 18.2714 23.6042 70.8253 43.0768 -17.1526 -16.233 -2.28887 10.4731 11.6541 4.3954 8.28071 1.59028e-015 -3.18055e-015 3.97569e-016 3.18055e-015 -3.18056e-015 3.97569e-016 -1.65212 -5.915 -1.96237 
34.8287 96.0534 -27.9886 1.29826 0.390956 2.65422 -0.208696 2.08587 -0.472554 2.85059 -1.80552 6.02149 -0.603493 3.86539 -6.82307 3.26145 -2.87357 -0.076138 0.864325 -4.164 -0.340602 -5.30765 -2.97263 -1.88208 0.153708 9.87471 0.0818258 -5.28104 -8.95362 1.8519 2.40109 -8.04235 2.43181 -0.4006 4.17333 -0.938416 -0.4006 4.17333 -0.938418 2.2608 -8.37515 -2.72745 -26.2239 9.04359 0.52883 -56.94 47.8471 4.00931 16.502 0.599229 -22.3503 7.9886 1.1878 -4.30921 -3.18055e-015 9.54166e-015 -0 -3.18055e-015 3.18056e-015 -0 23.3307 17.5975 22.9717 69.8604 43.3548 -17.1472 -16.5015 -1.69061 11.902 6.98695 3.22234 9.15012 7.95139e-016 -3.18055e-015 -1.98785e-016 5.96354e-016 -6.36111e-015 1.54058e-015 -2.01283 -6.12681 -1.78939 
34.9597 96.0374 -28.0587 1.35534 0.339052 2.28206 -0.192986 2.07102 -0.473493 2.66712 -1.7615 7.12149 -0.503703 3.98005 -7.56452 3.30748 -2.97442 -0.0741604 0.856657 -4.18977 -0.363758 -5.5031 -3.15707 -2.21924 0.0607207 10.161 0.142732 -5.08648 -9.10103 2.49361 2.39959 -8.04372 2.43203 -0.371941 4.14355 -0.939733 -0.370205 4.14355 -0.940221 2.238 -8.01705 -2.53892 -26.4813 8.79351 0.248675 -57.1482 48.455 4.85767 16.0863 -1.44761 -22.8736 7.94319 1.0338 -4.09526 -9.54166e-015 -6.36111e-015 1.59028e-015 -9.54166e-015 -9.54167e-015 -0 23.1139 16.7706 21.8829 69.8699 46.0553 -17.7649 -18.3284 3.17572 12.6563 1.4436 0.412673 9.15989 -3.31043e-032 1.59028e-015 1.19271e-015 7.95139e-016 3.18056e-015 -3.97569e-016 -2.07378 -6.09939 -1.59684 
35.0313 96.0478 -28.1394 1.27003 0.287622 2.1521 -0.176873 2.02662 -0.554331 2.68736 -1.64332 6.51602 -0.595313 3.84736 -6.88071 3.58889 -2.72452 -0.0885581 0.85846 -4.39036 -0.374673 -5.47876 -3.06008 -2.15444 0.0428935 9.96578 0.224109 -5.01561 -8.95673 2.58248 2.39801 -8.04515 2.43192 -0.332835 4.05484 -1.10504 -0.333632 4.05486 -1.10439 1.9522 -7.5841 -2.26657 -26.1944 8.45499 0.124229 -57.6775 48.3154 5.5725 16.0921 -1.83123 -23.1263 8.03293 0.894587 -3.96099 -3.18055e-015 6.36111e-015 1.59028e-015 -3.18055e-015 3.18056e-015 1.59028e-015 23.7376 16.0581 20.9189 68.5113 47.7483 -17.66 -19.054 7.16595 13.2263 -2.91793 -1.55432 7.44332 3.18055e-015 -1.59028e-015 -5.96354e-016 1.59028e-015 1.59028e-015 1.98785e-016 -1.7444 -6.04827 -1.44804 
35.0907 96.0351 -28.1745 1.32925 0.285054 1.96463 -0.180109 1.97762 -0.557994 2.62139 -1.62202 7.07686 -0.599609 3.95809 -7.20182 3.55741 -2.82362 -0.0877147 0.910626 -4.01888 -0.54425 -5.582 -3.13867 -2.25298 0.00705489 10.1205 0.300441 -4.9671 -9.05194 2.78929 2.39624 -8.04613 2.43161 -0.353903 3.95697 -1.11047 -0.357397 3.95698 -1.11048 1.85168 -7.3063 -2.18761 -26.0558 8.23883 -0.0451249 -57.9547 48.3192 5.79866 16.2167 -1.52106 -22.869 7.87001 1.08265 -3.75533 8.82781e-032 3.18055e-015 -1.59028e-015 3.18055e-015 0 -1.59028e-015 24.0226 15.6375 20.3966 66.4713 46.8793 -16.389 -18.818 7.02653 13.4505 -2.72755 -0.421254 5.79258 -1.59028e-015 1.59028e-015 7.95139e-016 -1.59028e-015 3.18056e-015 9.93923e-016 -1.6248 -5.96537 -1.41165 
35.0976 96.0466 -28.1773 1.31085 0.247463 1.87566 -0.184115 1.97292 -0.516928 2.62248 -1.53197 6.30367 -0.636775 3.84674 -6.35201 3.67745 -2.71412 -0.085786 0.76266 -4.06425 -0.27014 -5.55629 -3.11465 -2.20909 -0.00695847 10.1157 0.297925 -4.94958 -8.99377 2.81222 2.39189 -8.03505 2.43105 -0.357449 3.94034 -1.0283 -0.359558 3.94034 -1.02821 1.94766 -7.44296 -2.31071 -26.2524 8.36789 -0.0899476 -57.8574 48.8849 5.64463 15.9954 -2.06206 -22.3271 7.4958 0.961517 -3.39334 3.18055e-015 -6.36111e-015 -0 3.18055e-015 -3.18056e-015 1.59028e-015 24.0827 15.7534 20.1483 64.6983 44.9449 -15.171 -19.0164 8.10536 13.642 -2.46877 -0.913311 5.78992 -1.59028e-015 -1.59028e-015 7.95139e-016 1.10348e-032 -1.59028e-015 3.97569e-016 -1.71803 -5.735 -1.48781 
35.0751 96.0661 -28.1232 1.29375 0.115856 1.78207 -0.195105 1.98508 -0.488421 2.66649 -1.26144 5.23968 -0.712627 3.60488 -5.09055 3.45486 -2.7722 -0.0826645 0.723467 -3.90383 -0.244419 -5.50991 -2.90797 -2.21291 -0.0231044 9.95493 0.304613 -4.93821 -8.93255 2.86344 2.38268 -8.01356 2.43033 -0.374591 3.97175 -0.969989 -0.374031 3.97177 -0.97042 1.84399 -7.51771 -2.35185 -26.2285 8.50469 -0.284065 -57.7436 48.9069 5.54744 15.483 -2.99955 -22.0221 7.28774 0.990341 -3.09464 3.18055e-015 -3.18055e-015 -1.59028e-015 3.18055e-015 3.18056e-015 -0 24.1622 15.8677 20.2421 63.9174 44.2241 -14.3606 -18.3589 7.4886 13.2965 -2.35326 -0.896224 5.7203 -1.59028e-015 -3.18055e-015 3.97569e-016 -1.59028e-015 -3.18056e-015 -3.97569e-016 -1.65338 -5.59606 -1.56706 
35.0542 96.0477 -28.0836 1.31839 -0.0303258 1.66754 -0.217241 1.99108 -0.464821 2.64181 -1.16723 6.32125 -0.568248 3.80204 -6.11752 3.34719 -2.89396 -0.0766563 0.890241 -4.22574 -0.418668 -5.51096 -2.84259 -2.21269 -0.0207901 10.1251 0.307875 -4.9268 -9.05443 2.9613 2.37737 -8.00208 2.42959 -0.419187 3.98387 -0.922189 -0.41873 3.98387 -0.926822 1.72587 -7.53011 -2.34946 -26.16 8.54087 -0.330924 -57.7446 48.7134 5.57836 15.2613 -3.45572 -21.9469 7.15324 0.945875 -3.01824 -3.18055e-015 -6.36111e-015 -0 2.64834e-031 -9.54167e-015 1.59028e-015 24.1537 15.944 20.5347 64.2932 44.5174 -14.3299 -18.1954 5.90811 12.9169 -2.5775 -1.55439 5.70722 1.59028e-015 3.18055e-015 -0 1.10348e-032 1.59028e-015 -3.97569e-016 -1.51424 -5.34631 -1.60691 
34.971 96.0431 -28.102 1.09289 0.0254376 1.82794 -0.188603 1.95965 -0.468385 2.95618 -1.55723 6.83655 -0.569231 4.49663 -6.71591 3.2828 -3.25987 -0.0624838 0.88998 -4.14097 -0.423905 -5.23053 -2.76185 -2.27625 -0.0542326 9.92823 0.270761 -4.94893 -8.93 2.9045 2.37092 -7.97785 2.42834 -0.361076 3.92082 -0.926871 -0.361081 3.92076 -0.928988 1.66721 -7.54919 -2.36643 -26.0655 8.53873 -0.25984 -57.7358 48.4014 5.44492 15.1725 -3.4635 -21.8951 7.15217 0.829586 -3.08064 3.18055e-015 3.18055e-015 3.18055e-015 3.18055e-015 0 -0 24.0879 16.0027 20.7365 64.6902 44.5371 -14.333 -18.2096 5.2446 12.6339 -3.01529 -1.81601 5.86835 -0 0 3.97569e-016 0 0 -0 -1.34538 -5.21476 -1.66838 
34.9368 96.0467 -28.0677 1.16011 -0.0540538 1.75732 -0.222322 1.95733 -0.40834 2.9007 -1.37986 7.00519 -0.488347 4.35379 -6.82979 3.23442 -3.18682 -0.0606882 0.959441 -4.17254 -0.498374 -5.26045 -2.70507 -2.29828 -0.0321472 10.0012 0.240571 -4.9254 -8.99956 2.9606 2.35798 -7.91603 2.39812 -0.431047 3.91618 -0.809781 -0.431046 3.91618 -0.80978 1.77497 -7.57782 -2.48055 -26.1728 8.50759 -0.146689 -57.7411 47.738 5.40027 15.0499 -3.43207 -22.0059 7.34038 0.963013 -3.04121 -0 -6.36111e-015 -0 -0 -3.18056e-015 -0 24.0122 16.0546 20.7301 65.038 44.2655 -14.5483 -18.2677 3.99576 12.7394 -3.16788 -1.75454 5.75991 -1.59028e-015 3.18055e-015 7.95139e-016 -4.41391e-032 3.18056e-015 7.95139e-016 -1.36206 -5.23172 -1.75184 
34.9359 96.0456 -28.0737 1.13609 -0.0756438 2.08028 -0.218359 1.92206 -0.428761 2.88948 -1.4423 6.37291 -0.436542 4.45557 -6.47005 3.29234 -3.17181 -0.0596758 1.00219 -4.19693 -0.541152 -5.26568 -2.5345 -2.70788 -0.00215517 9.90796 0.213622 -4.87618 -9.00453 3.10275 2.35084 -7.90396 2.37507 -0.427574 3.84571 -0.851247 -0.427755 3.84572 -0.850991 1.75146 -7.50329 -2.56998 -26.117 8.40998 -0.123534 -58.0445 47.0047 5.70172 15.0243 -3.39768 -22.2537 7.33146 0.87727 -3.0657 1.76556e-031 6.36111e-015 -1.59028e-015 3.18055e-015 6.36111e-015 -1.59028e-015 23.9364 15.8857 20.4883 65.3753 43.8466 -14.5414 -18.3889 4.07199 12.5636 -4.08406 -1.98634 6.06262 -0 0 1.19271e-015 1.59028e-015 0 7.95139e-016 -1.31487 -5.2015 -1.85234 
34.7909 96.0432 -28.1149 0.927001 0.0162703 2.15072 -0.193898 1.88868 -0.428677 3.2665 -1.73082 6.37898 -0.591822 4.85928 -6.48486 3.24989 -3.37597 -0.0592331 1.01174 -4.1715 -0.552258 -4.9397 -2.54724 -2.45399 -0.0213197 9.75134 0.194601 -5.00734 -8.87124 2.81234 2.34643 -7.88761 2.38138 -0.373618 3.77873 -0.850578 -0.373728 3.77873 -0.851118 1.78339 -7.65498 -2.59572 -26.0984 8.50919 0.0380625 -58.2538 46.5252 5.90581 14.9355 -3.61495 -22.4815 7.38352 0.746157 -3.04888 8.82781e-032 3.18055e-015 -1.59028e-015 -3.18055e-015 0 -4.77083e-015 23.8913 15.9473 20.2059 65.5752 43.6077 -14.543 -18.6976 5.10238 12.3995 -5.20885 -2.11367 6.53767 0 0 -7.95139e-016 1.59028e-015 0 -1.59028e-015 -1.30772 -5.02741 -1.865 
34.7153 96.0429 -28.1186 0.831779 -0.0163176 2.20185 -0.193866 1.89293 -0.429159 3.45536 -1.7872 6.40835 -0.662895 5.01815 -6.56329 3.30322 -3.43665 -0.0591162 1.02562 -4.17919 -0.553768 -4.76426 -2.45397 -2.32478 -0.049288 9.61979 0.0577466 -5.00046 -8.81985 2.79096 2.34083 -7.85282 2.36605 -0.375039 3.78727 -0.853058 -0.374478 3.78727 -0.852782 1.71177 -7.64917 -2.59548 -26.1049 8.4872 0.113906 -58.1421 46.3158 6.04614 14.928 -3.60366 -22.6681 7.4501 0.63383 -3.24939 -3.18055e-015 -3.18055e-015 1.59028e-015 1.76556e-031 -3.18056e-015 3.18055e-015 24.0407 15.9135 20.0481 65.636 43.6478 -14.6522 -18.7797 4.71209 12.2045 -5.19526 -1.97939 6.24657 -1.59028e-015 6.36111e-015 -0 1.59028e-015 6.36111e-015 -0 -1.17446 -5.05027 -1.91183 
34.7582 96.0322 -28.1182 0.805508 0.00682525 2.31713 -0.203206 1.90626 -0.460161 3.37113 -1.86781 6.1215 -0.521002 5.07134 -6.40078 3.47894 -3.36314 -0.0592364 1.14638 -4.35578 -0.620282 -4.83701 -2.43625 -2.71995 0.0289687 9.60194 0.0391351 -4.93875 -8.89306 3.06947 2.34279 -7.86029 2.3934 -0.388479 3.79079 -0.914395 -0.389327 3.7908 -0.914457 1.61862 -7.61826 -2.53924 -25.974 8.48185 0.0727979 -58.1014 46.1187 5.998 14.7922 -3.78321 -22.6416 7.45458 0.728725 -3.20263 -9.54166e-015 -3.18055e-015 6.36111e-015 -6.36111e-015 0 7.95139e-015 24.1401 15.9083 20.139 65.374 42.9304 -14.6748 -18.5829 3.28111 12.1525 -4.38925 -1.77893 5.84414 1.59028e-015 6.36111e-015 1.59028e-015 -1.76556e-031 6.36111e-015 1.59028e-015 -1.03931 -5.05127 -1.90251 
